<?xml version="1.0" encoding="iso-8859-1"?>
<!-- Generator: Adobe Illustrator 18.1.1, SVG Export Plug-In . SVG Version: 6.00 Build 0)  -->
<svg version="1.1" id="cardif-logo" xmlns="http://www.w3.org/2000/svg" xmlns:xlink="http://www.w3.org/1999/xlink" x="0px"
	 y="0px" viewBox="26.931 360 541.417 121.89" style="enable-background:new 26.931 360 541.417 121.89;" xml:space="preserve">
<g id="Embleme">
	<g id="volume">
		<g>
			
				<linearGradient id="SVGID_1_" gradientUnits="userSpaceOnUse" x1="34.015" y1="831.6683" x2="34.015" y2="783.791" gradientTransform="matrix(2.6067 0 0 -2.6067 0 2526.8059)">
				<stop  offset="0" style="stop-color:#008053"/>
				<stop  offset="0.6" style="stop-color:#7FCBAE"/>
				<stop  offset="1" style="stop-color:#00A76D"/>
			</linearGradient>
			<rect x="29.554" y="361.828" style="fill:url(#SVGID_1_);" width="118.223" height="118.226"/>
			
				<linearGradient id="SVGID_2_" gradientUnits="userSpaceOnUse" x1="33.944" y1="841.8184" x2="33.944" y2="788.0183" gradientTransform="matrix(2.6067 0 0 -2.6067 0 2526.8059)">
				<stop  offset="0" style="stop-color:#00A76D"/>
				<stop  offset="0.3" style="stop-color:#7FCBAE"/>
				<stop  offset="0.55" style="stop-color:#00A76D"/>
				<stop  offset="0.8352" style="stop-color:#008053"/>
				<stop  offset="0.8691" style="stop-color:#008558"/>
				<stop  offset="0.9244" style="stop-color:#009264"/>
				<stop  offset="0.9938" style="stop-color:#00A97A"/>
				<stop  offset="1" style="stop-color:#00AD7D"/>
			</linearGradient>
			<path style="fill:url(#SVGID_2_);" d="M144.128,421.628c0,24.677,1.142,49.946,1.142,49.946
				c-0.044,2.831-1.861,4.642-4.147,4.642H38.79c-2.291,0-3.874-2.036-4.145-4.642c0,0-2.953-21.573-2.953-54.545
				c0-32.954,2.953-48.474,2.953-48.474c0.355-2.711,1.853-4.648,4.145-4.648h102.33c2.286,0,4.199,2.122,4.147,4.648
				C145.267,368.559,144.128,396.951,144.128,421.628z"/>
			<g>
				<g>
					
						<linearGradient id="SVGID_3_" gradientUnits="userSpaceOnUse" x1="42.561" y1="790.9891" x2="42.561" y2="825.8046" gradientTransform="matrix(2.6067 0 0 -2.6067 0 2526.8059)">
						<stop  offset="0" style="stop-color:#00B387"/>
						<stop  offset="1" style="stop-color:#00A76D"/>
					</linearGradient>
					<path style="fill:url(#SVGID_3_);" d="M121.361,393.757c-7.312,4.28-9.543,4.624-17.475,9.387l0.386-0.881
						c4.163-4.541,5.974-6.454,8.711-10.468c-7.333,0.396-17.957,1.272-25.561,2.948l0,0l0,0l0,0l0.401-0.816
						c6.897-3.355,19.699-6.689,26.226-7.552c-1.59-2.239-14.563-9.256-17.791-10.609l0,0l0,0l0,0l0.375-0.821
						c9.832,1.11,22.855,5.709,28.533,9.189c2.398-0.753,4.848-0.829,9.295-1.217c0,0-0.657,2.682-5.505,6.014l0,0l0,0l0,0
						c1.202,3.217-1.687,21.049-4.066,25.777l0,0l0,0l0,0C124.789,407.252,124.124,397.842,121.361,393.757z"/>
					
						<linearGradient id="SVGID_4_" gradientUnits="userSpaceOnUse" x1="20.9605" y1="790.987" x2="20.9605" y2="825.8129" gradientTransform="matrix(2.6067 0 0 -2.6067 0 2526.8059)">
						<stop  offset="0" style="stop-color:#00B387"/>
						<stop  offset="1" style="stop-color:#00A76D"/>
					</linearGradient>
					<path style="fill:url(#SVGID_4_);" d="M67.943,457.67l0.373-0.824c-3.881-1.507-7.765-2.695-10.909-5.656l0,0l0,0l0,0l0,0l0,0
						l0,0l0,0l0,0l0,0l0,0l0,0l0,0l0,0l0,0l0,0l0,0l0,0l0,0l0,0l0,0l0,0l0,0l0,0l0,0l0,0l0,0l0,0l0,0l0,0l0,0l0,0
						c0.991-2.75,2.122-4.903,3.965-7.627l0,0l0,0l0,0l0,0l0,0l0,0l0,0l0,0l0,0l0,0l0,0l0,0l0,0l0,0l0,0l0,0l0,0l0,0l0,0l0,0l0,0
						l0,0l0,0l0,0l0,0l0,0l0,0l0,0l0,0l0,0l0,0l0.388-0.834c-3.334,0.5-6.36,1.723-9.246,2.286l0,0l0,0l0,0l0,0l0,0l0,0l0,0l0,0l0,0
						l0,0l0,0l0,0l0,0l0,0l0,0l0,0l0,0l0,0l0,0l0,0l0,0l0,0l0,0l0,0l0,0l0,0l0,0l0,0l0,0l0,0l0,0
						c-2.276-3.999-3.159-9.47-4.304-14.678l-0.381,0.829l0,0l0,0l0,0l0,0l0,0l0,0l0,0l0,0l0,0l0,0l0,0l0,0l0,0l0,0l0,0
						c-0.644,5.941-0.905,10.189-0.055,14.936l0,0l0,0l0,0l0,0l0,0l0,0l0,0l0,0l0,0l0,0l0,0l0,0l0,0l0,0l0,0l0,0l0,0l0,0l0,0l0,0
						l0,0l0,0l0,0l0,0l0,0l0,0l0,0l0,0l0,0l0,0l0,0c-2.401,0.667-4.51,0.761-6.446,1.585l-0.37,0.816l0,0l0,0l0,0l0,0l0,0l0,0l0,0
						l0,0l0,0l0,0l0,0l0,0l0,0l0,0l0,0l0,0l0,0l0,0l0,0l0,0l0,0l0,0l0,0l0,0l0,0l0,0l0,0l0,0l0,0l0,0l0,0
						c3.084,1.9,5.594,3.36,9.079,4.987l0,0l0,0l0,0l0,0l0,0l0,0l0,0l0,0l0,0l0,0l0,0l0,0l0,0l0,0l0,0l0,0l0,0l0,0l0,0l0,0l0,0l0,0
						l0,0l0,0l0,0l0,0l0,0l0,0l0,0l0,0l0,0c1.861,4.006,3.793,6.707,6.915,9.793l0,0l0,0l0,0l0,0l0,0l0,0l0,0l0,0l0,0l0,0l0,0l0,0
						l0,0l0,0l0,0l0,0l0,0l0,0l0,0l0,0l0,0l0,0l0,0l0,0l0,0l0,0l0,0l0,0l0,0l0,0l0,0l0.381-0.824c-0.563-2.278-1.29-4.16-1.017-6.65
						l0,0l0,0l0,0l0,0l0,0l0,0l0,0l0,0l0,0l0,0l0,0l0,0l0,0l0,0l0,0l0,0l0,0l0,0l0,0l0,0l0,0l0,0l0,0l0,0l0,0l0,0l0,0l0,0l0,0l0,0
						l0,0C60.198,456.94,63.525,457.535,67.943,457.67z"/>
					
						<linearGradient id="SVGID_5_" gradientUnits="userSpaceOnUse" x1="27.6905" y1="790.9947" x2="27.6905" y2="825.7993" gradientTransform="matrix(2.6067 0 0 -2.6067 0 2526.8059)">
						<stop  offset="0" style="stop-color:#00B387"/>
						<stop  offset="1" style="stop-color:#00A76D"/>
					</linearGradient>
					<path style="fill:url(#SVGID_5_);" d="M78.724,398.293c0,0-1.561,2.771-2.81,6.446h-0.297l0,0l0,0
						c9.102,1.228,17.702,4.914,19.86,6.186l-0.383,0.816l0,0l0,0l0,0l0,0l0,0l0,0l0,0c-9.449-1.66-14.425-1.473-17.947-1.155l0,0
						l0,0l0,0c-3.511,0.336-4.228,0.774-4.228,0.774l0,0l0,0l0,0l0,0l0,0l0,0l0,0c-2.025,4.429-3.214,11.673-3.696,14.337
						l-0.381,0.829l0,0l0,0l0,0l0,0l0,0l0,0l0,0c-1.731-4.155-4.22-12.449-4.22-12.449l0,0l0,0l0,0l0,0l0,0l0,0l0,0
						c-4.76,2.555-15.739,12.859-15.739,12.859l0,0l0,0l0,0l0,0l0,0l0,0l0,0c6.053-12.066,12.168-17.579,12.168-17.579l0,0l0,0l0,0
						l0,0l0,0l0,0l0,0c-2.114-2.119-7.627-3.198-11.654-3.368l0,0l0,0l0,0l0.373-0.816c2.531-0.74,7.739-1.051,11.232-1.215l0,0l0,0
						l0,0l0,0l0,0l0,0l0,0c4.132-0.125,6.629,0.112,6.629,0.112l0,0l0,0l0,0C71.303,401.134,76.792,398.564,78.724,398.293z"/>
					
						<linearGradient id="SVGID_6_" gradientUnits="userSpaceOnUse" x1="33.507" y1="790.9896" x2="33.507" y2="825.7993" gradientTransform="matrix(2.6067 0 0 -2.6067 0 2526.8059)">
						<stop  offset="0" style="stop-color:#00B387"/>
						<stop  offset="1" style="stop-color:#00A76D"/>
					</linearGradient>
					<path style="fill:url(#SVGID_6_);" d="M90.308,450.174c-1.911,2.588-3.542,4.627-5.646,6.996l0,0l0,0l0,0l0,0l0,0l0,0l0,0l0,0
						l0,0l0,0l0,0l0,0l0,0l0,0l0,0l0,0l0,0l0,0l0,0l0,0l0,0l0,0l0,0l0,0l0,0l0,0l0,0l0,0l0,0l0,0l0,0
						c-3.11,0.865-6.843,0.474-9.718,0.579l-0.378,0.821l0,0l0,0l0,0l0,0l0,0l0,0l0,0l0,0l0,0l0,0l0,0l0,0l0,0l0,0l0,0l0,0l0,0l0,0
						l0,0l0,0l0,0l0,0l0,0l0,0l0,0l0,0l0,0l0,0l0,0l0,0l0,0c2.164,1.116,4.283,1.793,6.545,2.26l0,0l0,0l0,0l0,0l0,0l0,0l0,0l0,0
						l0,0l0,0l0,0l0,0l0,0l0,0l0,0l0,0l0,0l0,0l0,0l0,0l0,0l0,0l0,0l0,0l0,0l0,0l0,0l0,0l0,0l0,0l0,0
						c-1.835,1.671-4.288,2.943-6.008,4.105l-0.381,0.813l0,0l0,0l0,0l0,0l0,0l0,0l0,0l0,0l0,0l0,0l0,0l0,0l0,0l0,0l0,0l0,0l0,0l0,0
						l0,0l0,0l0,0l0,0l0,0l0,0l0,0l0,0l0,0l0,0l0,0l0,0l0,0c3.694-0.873,8.555-2.442,12.178-4.58l0,0l0,0l0,0l0,0l0,0l0,0l0,0l0,0
						l0,0l0,0l0,0l0,0l0,0l0,0l0,0l0,0l0,0l0,0l0,0l0,0l0,0l0,0l0,0l0,0l0,0l0,0l0,0l0,0l0,0l0,0l0,0
						c1.885,0.083,3.644-0.042,4.94-0.297l0,0l0,0l0,0l0,0l0,0l0,0l0,0l0,0l0,0l0,0l0,0l0,0l0,0l0,0l0,0l0,0l0,0l0,0l0,0l0,0l0,0
						l0,0l0,0l0,0l0,0l0,0l0,0l0,0l0,0l0,0l0,0c0,0,0.386-0.839,0.386-0.821c-0.237-0.834-0.978-1.345-1.196-2.513l0,0l0,0l0,0l0,0
						l0,0l0,0l0,0l0,0l0,0l0,0l0,0l0,0l0,0l0,0l0,0l0,0l0,0l0,0l0,0l0,0l0,0l0,0l0,0l0,0l0,0l0,0l0,0l0,0l0,0l0,0l0,0
						c3.396-2.635,5.855-5.036,8.696-7.89l0,0l0,0l0,0l0,0l0,0l0,0l0,0l0,0l0,0l0,0l0,0l0,0l0,0l0,0l0,0l0,0l0,0l0,0l0,0l0,0l0,0
						l0,0l0,0l0,0l0,0l0,0l0,0l0,0l0,0l0,0l0,0l0.391-0.824c-2.805,1.932-6.209,4.593-9.491,6.147l0,0l0,0l0,0l0,0l0,0l0,0l0,0l0,0
						l0,0l0,0l0,0l0,0l0,0l0,0l0,0l0,0l0,0l0,0l0,0l0,0l0,0l0,0l0,0l0,0l0,0l0,0l0,0l0,0l0,0l0,0l0,0
						C90.493,453.356,90.389,451.985,90.308,450.174z"/>
				</g>
				<g>
					<path style="fill:#FFFFFF;" d="M121.737,392.923c-7.293,4.291-9.53,4.65-17.465,9.402c4.619-5.015,6.227-7.147,9.084-11.344
						c-7.314,0.386-17.944,1.267-25.532,2.948l0,0l0,0l0,0c6.605-3.529,19.704-7.45,26.617-8.386
						c-1.603-2.213-14.579-9.241-17.806-10.596l0,0l0,0l0,0c10.273,0.803,22.829,4.637,28.916,8.36
						c2.396-0.748,4.885-0.785,9.342-1.181l0,0l0,0l0,0c-1.137,1.95-1.183,3.081-5.557,5.977l0,0l0,0l0,0
						c1.212,3.24-1.684,21.059-4.074,25.777l0,0l0,0l0,0C125.178,406.428,124.526,397.016,121.737,392.923z"/>
					<path style="fill:#FFFFFF;" d="M68.316,456.847c-4.192-1.556-7.213-3.365-10.536-6.47l0,0l0,0l0,0l0,0l0,0l0,0l0,0l0,0l0,0l0,0
						l0,0l0,0l0,0l0,0l0,0l0,0l0,0l0,0l0,0l0,0l0,0l0,0l0,0l0,0l0,0l0,0l0,0l0,0l0,0l0,0l0,0c0.996-2.75,2.13-4.895,3.983-7.648l0,0
						l0,0l0,0l0,0l0,0l0,0l0,0l0,0l0,0l0,0l0,0l0,0l0,0l0,0l0,0l0,0l0,0l0,0l0,0l0,0l0,0l0,0l0,0l0,0l0,0l0,0l0,0l0,0l0,0l0,0l0,0
						c-3.41,0.508-5.92,0.894-8.857,1.449l0,0l0,0l0,0l0,0l0,0l0,0l0,0l0,0l0,0l0,0l0,0l0,0l0,0l0,0l0,0l0,0l0,0l0,0l0,0l0,0l0,0
						l0,0l0,0l0,0l0,0l0,0l0,0l0,0l0,0l0,0l0,0c-2.39-4.181-3.475-8.216-4.692-13.841l0,0l0,0l0,0l0,0l0,0l0,0l0,0l0,0l0,0l0,0l0,0
						l0,0l0,0l0,0l0,0c-0.652,5.956-0.899,10.213-0.057,14.949l0,0l0,0l0,0l0,0l0,0l0,0l0,0l0,0l0,0l0,0l0,0l0,0l0,0l0,0l0,0l0,0
						l0,0l0,0l0,0l0,0l0,0l0,0l0,0l0,0l0,0l0,0l0,0l0,0l0,0l0,0l0,0c-2.695,0.748-4.606,1.402-6.822,2.403l0,0l0,0l0,0l0,0l0,0l0,0
						l0,0l0,0l0,0l0,0l0,0l0,0l0,0l0,0l0,0l0,0l0,0l0,0l0,0l0,0l0,0l0,0l0,0l0,0l0,0l0,0l0,0l0,0l0,0l0,0l0,0
						c3.107,1.9,5.617,3.368,9.087,4.984l0,0l0,0l0,0l0,0l0,0l0,0l0,0l0,0l0,0l0,0l0,0l0,0l0,0l0,0l0,0l0,0l0,0l0,0l0,0l0,0l0,0l0,0
						l0,0l0,0l0,0l0,0l0,0l0,0l0,0l0,0l0,0c1.866,3.999,3.793,6.702,6.921,9.785l0,0l0,0l0,0l0,0l0,0l0,0l0,0l0,0l0,0l0,0l0,0l0,0
						l0,0l0,0l0,0l0,0l0,0l0,0l0,0l0,0l0,0l0,0l0,0l0,0l0,0l0,0l0,0l0,0l0,0l0,0l0,0c-0.732-2.625-0.925-4.713-0.626-7.468l0,0l0,0
						l0,0l0,0l0,0l0,0l0,0l0,0l0,0l0,0l0,0l0,0l0,0l0,0l0,0l0,0l0,0l0,0l0,0l0,0l0,0l0,0l0,0l0,0l0,0l0,0l0,0l0,0l0,0l0,0l0,0
						C60.589,456.119,63.91,456.711,68.316,456.847z"/>
					<path style="fill:#FFFFFF;" d="M79.23,397.584L79.23,397.584L79.23,397.584L79.23,397.584L79.23,397.584
						c-1.306,1.694-2.82,4.856-3.23,6.326l0,0l0,0l0,0c10.805,1.462,19.477,7.012,19.477,7.012l0,0l0,0l0,0l0,0l0,0l0,0l0,0
						c-9.449-1.676-14.428-1.468-17.955-1.15l0,0l0,0l0,0c-3.503,0.331-4.225,0.743-4.225,0.743l0,0l0,0l0,0l0,0l0,0l0,0l0,0
						c-2.547,5.586-4.077,15.176-4.077,15.176l0,0l0,0l0,0l0,0l0,0l0,0l0,0c-1.718-4.147-4.202-12.444-4.202-12.444l0,0l0,0l0,0l0,0
						l0,0l0,0l0,0c-4.768,2.547-15.734,12.864-15.734,12.864l0,0l0,0l0,0l0,0l0,0l0,0l0,0c6.029-12.077,12.147-17.569,12.147-17.569
						l0,0l0,0l0,0l0,0l0,0l0,0l0,0c-2.106-2.132-7.627-3.198-11.665-3.376l0,0l0,0l0,0c2.096-0.855,7.473-1.856,11.605-2.044l0,0
						l0,0l0,0l0,0l0,0l0,0l0,0c4.137-0.12,6.639,0.115,6.639,0.115l0,0l0,0l0,0C71.699,400.324,77.301,397.871,79.23,397.584z"/>
					<path style="fill:#FFFFFF;" d="M90.694,449.363c-1.908,2.586-3.548,4.616-5.664,6.983l0,0l0,0l0,0l0,0l0,0l0,0l0,0l0,0l0,0l0,0
						l0,0l0,0l0,0l0,0l0,0l0,0l0,0l0,0l0,0l0,0l0,0l0,0l0,0l0,0l0,0l0,0l0,0l0,0l0,0l0,0l0,0c-3.634,1.022-6.535,1.402-10.083,1.402
						l0,0l0,0l0,0l0,0l0,0l0,0l0,0l0,0l0,0l0,0l0,0l0,0l0,0l0,0l0,0l0,0l0,0l0,0l0,0l0,0l0,0l0,0l0,0l0,0l0,0l0,0l0,0l0,0l0,0l0,0
						l0,0c2.177,1.121,4.285,1.793,6.556,2.268l0,0l0,0l0,0l0,0l0,0l0,0l0,0l0,0l0,0l0,0l0,0l0,0l0,0l0,0l0,0l0,0l0,0l0,0l0,0l0,0
						l0,0l0,0l0,0l0,0l0,0l0,0l0,0l0,0l0,0l0,0l0,0c-2.27,2.057-4.189,3.519-6.394,4.921l0,0l0,0l0,0l0,0l0,0l0,0l0,0l0,0l0,0l0,0
						l0,0l0,0l0,0l0,0l0,0l0,0l0,0l0,0l0,0l0,0l0,0l0,0l0,0l0,0l0,0l0,0l0,0l0,0l0,0l0,0l0,0c3.696-0.876,8.552-2.445,12.171-4.583
						l0,0l0,0l0,0l0,0l0,0l0,0l0,0l0,0l0,0l0,0l0,0l0,0l0,0l0,0l0,0l0,0l0,0l0,0l0,0l0,0l0,0l0,0l0,0l0,0l0,0l0,0l0,0l0,0l0,0l0,0
						l0,0c1.89,0.073,3.655-0.05,4.95-0.305l0,0l0,0l0,0l0,0l0,0l0,0l0,0l0,0l0,0l0,0l0,0l0,0l0,0l0,0l0,0l0,0l0,0l0,0l0,0l0,0l0,0
						l0,0l0,0l0,0l0,0l0,0l0,0l0,0l0,0l0,0l0,0c-0.339-1.095-0.545-1.908-0.818-3.337l0,0l0,0l0,0l0,0l0,0l0,0l0,0l0,0l0,0l0,0l0,0
						l0,0l0,0l0,0l0,0l0,0l0,0l0,0l0,0l0,0l0,0l0,0l0,0l0,0l0,0l0,0l0,0l0,0l0,0l0,0l0,0c3.407-2.638,5.878-5.026,8.711-7.89l0,0
						l0,0l0,0l0,0l0,0l0,0l0,0l0,0l0,0l0,0l0,0l0,0l0,0l0,0l0,0l0,0l0,0l0,0l0,0l0,0l0,0l0,0l0,0l0,0l0,0l0,0l0,0l0,0l0,0l0,0l0,0
						c-3.016,2.104-5.617,3.673-9.108,5.323l0,0l0,0l0,0l0,0l0,0l0,0l0,0l0,0l0,0l0,0l0,0l0,0l0,0l0,0l0,0l0,0l0,0l0,0l0,0l0,0l0,0
						l0,0l0,0l0,0l0,0l0,0l0,0l0,0l0,0l0,0l0,0C90.861,452.533,90.775,451.172,90.694,449.363z"/>
				</g>
			</g>
		</g>
	</g>
</g>
<g id="noms">
	<g>
		<g>
			<g>
				<g>
					<path d="M201.037,452.465c-0.117,2.085-0.237,6.496-0.315,9.016c-2.283,1.181-5.868,1.848-9.329,1.848
						c-7.877,0-12.916-4.958-12.916-11.063c0-6.418,5.276-11.261,13.899-11.261c1.968,0,4.924,0.321,7.012,0.829l-1.538,4.176
						c-1.457-0.907-3.897-1.655-5.55-1.655c-4.958,0-6.736,4.408-6.736,7.953c0,5.941,3.191,7.872,6.775,7.872
						c0.433,0,1.814-0.036,2.244-0.154c0-2.562-0.036-5.829-0.237-7.559h6.691V452.465z"/>
					<path d="M215.723,441.561c4.645,0,10.197,1.653,10.197,6.577c0,2.635-1.968,4.523-5.039,5.745
						c0.631,1.1,5.787,7.794,6.811,8.897h-7.598c-1.337-2.56-3.9-6.97-6.418-10.708c3.032,0.394,5.67-1.061,5.67-3.973
						c0-2.8-3.23-3.626-4.804-3.626c-0.706,0-2.046,0-2.518,0.036c-0.117,2.601-0.159,5.714-0.159,7.129
						c0,1.851,0,7.914,0.355,11.141h-7.088c0.355-3.149,0.433-6.889,0.433-11.141c0-3.584-0.039-7.914-0.355-10.077L215.723,441.561
						L215.723,441.561z"/>
					<path d="M240.369,463.371c-6.616,0-11.576-4.525-11.576-11.18c0-6.694,4.96-11.185,11.576-11.185
						c6.574,0,11.535,4.491,11.535,11.185C251.906,458.846,246.943,463.371,240.369,463.371z M240.369,443.725
						c-3.071,0-5.002,2.992-5.002,8.466c0,5.474,1.932,8.386,5.002,8.386c3.032,0,4.921-2.912,4.921-8.386
						C245.29,446.717,243.403,443.725,240.369,443.725z"/>
					<path d="M261.749,441.561c-0.12,1.415-0.159,2.875-0.159,4.369v10.119c0,2.758,0.865,4.371,3.582,4.371
						c2.364,0,4.684-0.946,4.684-5.276v-10.276c0-2.164-0.039-2.398-0.198-3.305h5.865c-0.237,1.851-0.237,5.312-0.237,8.738v6.024
						c0,4.885-3.425,7.009-10.195,7.009c-6.144,0-9.924-1.298-9.924-7.322v-7.755c0-1.971-0.078-5.198-0.313-6.694h6.895V441.561z"
						/>
					<path d="M289.687,441.561c4.603,0,10.156,1.298,10.156,6.217c0,4.332-3.936,6.501-11.931,6.501c-0.472,0-1.77,0-2.127-0.042
						c0.159,2.953,0.12,6.532,0.315,8.542h-6.97c0.276-2.912,0.354-7.713,0.354-11.141c0-3.032-0.078-8.073-0.354-10.077H289.687z
						 M285.866,444.509c0,1.382-0.081,2.8-0.081,4.181c0,1.019,0.042,1.806,0.081,2.56c0.235,0.039,1.34,0.039,2.046,0.039
						c2.244,0,5.354-0.628,5.354-3.509c0-2.789-3.188-3.305-5.589-3.305C287.362,444.473,286.181,444.473,285.866,444.509z"/>
					<path d="M321.139,441.561v3.542c-2.596-0.315-4.525-0.357-6.454-0.357h-2.839c-0.508,0-0.667,0-1.061,0
						c-0.237,0-0.472,0-0.821,0c-0.044,1.929-0.081,4.017-0.081,5.594l7.596-0.162v3.506l-7.635-0.117
						c0,1.415,0.076,4.212,0.12,6.141c3.503,0,8.029-0.123,11.73-0.355v3.423H303.19c0.274-2.912,0.313-9.212,0.313-11.104
						c0-2.005-0.117-7.716-0.274-10.116h17.91V441.561z"/>
					<path d="M347.818,441.561c3.941,0,8.232,1.415,8.232,5.036c0,1.971-1.694,3.746-4.215,4.611c3.35,1.22,5.273,3.149,5.273,5.669
						c0,4.408-5.352,5.907-10.39,5.907h-11.537c0.274-2.755,0.357-6.733,0.357-11.141c0-2.914-0.042-7.325-0.315-10.077h12.595
						V441.561z M344.589,444.238c-1.019,0-2.046,0.076-2.555,0.156c-0.12,2.758-0.159,4.095-0.159,7.244
						c0,3.821,0,5.237,0.159,8.271h3.071c3.621,0,5.357-1.064,5.357-3.269c0-2.445-2.244-3.584-5.198-3.584h-1.775l1.225-3.188
						h1.296c1.499,0,3.506-0.79,3.506-2.719C349.513,445.104,347.659,444.238,344.589,444.238z"/>
					<path d="M380.501,441.561c-0.195,2.401-0.318,7.992-0.318,10.077c0,1.929,0.044,8.229,0.318,11.141h-5.002l-8.031-11.853
						c-0.67-0.941-1.142-1.848-1.34-2.912v6.73c0,2.562,0.078,6.186,0.315,8.034h-5.709c0.354-3.227,0.396-9.29,0.396-11.141
						c0-2.01-0.122-7.677-0.279-10.077h6.496l6.775,11.024c0.355,0.55,0.474,0.821,0.628,1.298v-12.324h5.75V441.561z"/>
					<path d="M395.969,441.561c4.609,0,10.161,1.298,10.161,6.217c0,4.332-3.941,6.501-11.931,6.501c-0.474,0-1.773,0-2.124-0.042
						c0.159,2.953,0.117,6.532,0.315,8.542h-6.97c0.274-2.912,0.354-7.713,0.354-11.141c0-3.032-0.078-8.073-0.354-10.077H395.969z
						 M392.153,444.509c0,1.382-0.078,2.8-0.078,4.181c0,1.019,0.039,1.806,0.078,2.56c0.237,0.039,1.337,0.039,2.046,0.039
						c2.242,0,5.354-0.628,5.354-3.509c0-2.789-3.191-3.305-5.591-3.305C393.649,444.473,392.468,444.473,392.153,444.509z"/>
					<path d="M428.099,441.561c4.609,0,10.156,1.298,10.156,6.217c0,4.332-3.936,6.501-11.928,6.501c-0.474,0-1.773,0-2.124-0.042
						c0.156,2.953,0.115,6.532,0.313,8.542h-6.968c0.274-2.912,0.355-7.713,0.355-11.141c0-3.032-0.078-8.073-0.355-10.077H428.099z
						 M424.283,444.509c0,1.382-0.078,2.8-0.078,4.181c0,1.019,0.039,1.806,0.078,2.56c0.235,0.039,1.335,0.039,2.046,0.039
						c2.242,0,5.357-0.628,5.357-3.509c0-2.789-3.193-3.305-5.591-3.305C425.779,444.473,424.598,444.473,424.283,444.509z"/>
					<path d="M450.644,441.561c0.787,2.515,7.791,17.796,9.407,21.221h-6.97c-0.274-0.826-0.824-1.968-1.848-4.648
						c-1.064-0.036-2.169-0.036-3.626-0.036c-1.415,0-2.445,0.036-3.582,0.078c-0.628,1.733-1.183,3.107-1.692,4.606h-6.063
						c1.181-2.638,8.151-17.835,9.407-21.221C445.678,441.561,450.644,441.561,450.644,441.561z M450.052,454.91
						c-0.829-2.051-1.971-4.611-2.523-6.379c-0.589,1.809-1.851,4.606-2.479,6.379c0.787,0.036,1.851,0.073,2.557,0.073
						C448.597,454.983,449.106,454.946,450.052,454.91z"/>
					<path d="M473.082,441.561c4.645,0,10.197,1.653,10.197,6.577c0,2.635-1.968,4.523-5.039,5.745
						c0.628,1.1,5.784,7.794,6.811,8.897h-7.601c-1.34-2.56-3.897-6.97-6.415-10.708c3.029,0.394,5.667-1.061,5.667-3.973
						c0-2.8-3.227-3.626-4.801-3.626c-0.709,0-2.046,0-2.521,0.036c-0.122,2.601-0.159,5.714-0.159,7.129
						c0,1.851,0,7.914,0.355,11.141h-7.088c0.355-3.149,0.433-6.889,0.433-11.141c0-3.584-0.039-7.914-0.355-10.077L473.082,441.561
						L473.082,441.561z"/>
					<path d="M494.814,441.561c-0.159,2.401-0.274,8.07-0.274,10.116c0,1.892,0,8.193,0.274,11.104h-7.007
						c0.355-3.227,0.394-9.29,0.394-11.104c0-2.005-0.12-7.716-0.276-10.116H494.814z"/>
					<path d="M512.023,441.561c3.936,0,8.229,1.415,8.229,5.036c0,1.971-1.694,3.746-4.215,4.611
						c3.347,1.22,5.276,3.149,5.276,5.669c0,4.408-5.357,5.907-10.395,5.907h-11.535c0.274-2.755,0.354-6.733,0.354-11.141
						c0-2.914-0.036-7.325-0.315-10.077h12.601V441.561z M508.791,444.238c-1.022,0-2.046,0.076-2.557,0.156
						c-0.117,2.758-0.159,4.095-0.159,7.244c0,3.821,0,5.237,0.159,8.271h3.071c3.626,0,5.357-1.064,5.357-3.269
						c0-2.445-2.242-3.584-5.198-3.584h-1.772l1.223-3.188h1.298c1.496,0,3.506-0.79,3.506-2.719
						C513.715,445.104,511.864,444.238,508.791,444.238z"/>
					<path d="M536.471,441.561c0.79,2.515,7.794,17.796,9.413,21.221h-6.97c-0.279-0.826-0.829-1.968-1.853-4.648
						c-1.058-0.036-2.164-0.036-3.621-0.036c-1.418,0-2.442,0.036-3.584,0.078c-0.631,1.733-1.181,3.107-1.694,4.606h-6.058
						c1.181-2.638,8.148-17.835,9.407-21.221C531.51,441.561,536.471,441.561,536.471,441.561z M535.879,454.91
						c-0.824-2.051-1.968-4.611-2.518-6.379c-0.592,1.809-1.851,4.606-2.482,6.379c0.79,0.036,1.851,0.073,2.56,0.073
						C534.422,454.983,534.936,454.946,535.879,454.91z"/>
					<path d="M556.826,441.006c2.716,0,5.354,0.396,7.007,0.91v5.393c-2.325-1.34-4.609-2.479-7.638-2.479
						c-2.403,0-2.557,0.946-2.557,1.65c0,3.587,12.085,3.623,12.085,10.041c0,4.178-3.894,6.811-10.39,6.811
						c-2.917,0-5.672-0.592-7.559-1.256v-5.159c4.447,2.085,6.811,2.758,8.857,2.758c1.653,0,2.873-0.748,2.873-2.166
						c0-4.056-12.045-3.66-12.045-10.547C547.455,443.175,551.235,441.006,556.826,441.006z"/>
				</g>
			</g>
		</g>
		<g>
			<g>
				<g>
					<path d="M214.581,387.913c-2.581-1.522-5.756-2.779-9.861-2.779c-12.048,0-16.216,9.666-16.216,17.804
						c0,11.318,6.947,17.139,16.281,17.139c5.823,0,10.192-2.711,14.097-6.154l0.068,9.793c-3.973,1.59-8.868,2.977-16.216,2.977
						c-16.813,0-27.336-10.583-27.336-23.885c0-14.032,11.12-24.292,29.453-24.292c4.304,0,8.474,0.662,12.509,1.653
						L214.581,387.913z"/>
					<path d="M253.965,379.442c1.788,4.765,17.011,38.654,20.585,46.331h-12.773c-0.727-2.119-2.252-5.956-4.241-10.919
						c-2.646-0.065-5.359-0.138-9.134-0.138c-3.509,0-6.154,0.073-9.202,0.138c-1.452,3.902-2.646,7.476-3.704,10.919h-11.12
						c2.648-5.761,18.205-39.515,20.655-46.331H253.965z M255.091,408.764c-3.042-7.28-5.696-13.508-6.621-15.687
						c-2.114,4.499-4.434,9.793-6.884,15.687c1.992,0.065,4.705,0.13,6.884,0.13C250.592,408.897,252.839,408.829,255.091,408.764z"
						/>
					<path d="M301.279,379.442c9.731,0,21.312,2.716,21.312,13.435c0,6.024-3.509,10.064-10.458,12.181
						c0.993,1.986,12.181,18.99,14.032,20.715h-13.834c-3.042-5.761-9.929-17.407-14.96-24.951c0.86,0.198,2.119,0.328,3.576,0.328
						c4.04,0,9.731-2.912,9.731-8.276c0-6.684-8.081-7.875-12.113-7.875c-2.054,0-4.04,0.136-5.033,0.268
						c-0.263,5.758-0.396,12.973-0.396,16.216c0,4.103,0,17.801,0.725,24.289h-12.9c0.657-6.42,0.79-14.694,0.79-24.289
						c0-8.078-0.063-17.741-0.657-22.042C281.093,379.442,301.279,379.442,301.279,379.442z"/>
					<path d="M350.485,379.442c19.527,0,27.002,10.26,27.002,23.098c0,13.239-7.28,23.236-27.732,23.236h-17.214
						c0.667-6.225,0.667-14.762,0.667-24.224c0-4.502,0-16.083-0.667-22.107h17.944V379.442z M345.055,385.267
						c-0.263,3.042-0.331,10.919-0.331,16.284c0,6.749,0,12.045,0.266,18.333c0.662,0.065,1.715,0.198,3.308,0.198
						c11.188,0,17.016-3.503,17.016-17.736c0-13.565-5.961-17.41-17.28-17.141L345.055,385.267z"/>
					<path d="M398.761,379.442c-0.391,5.362-0.654,17.538-0.654,22.107c0,4.035,0.063,17.804,0.654,24.224h-12.835
						c0.657-6.42,0.725-20.189,0.725-24.224c0-4.502-0.268-16.748-0.594-22.107C386.056,379.442,398.761,379.442,398.761,379.442z"
						/>
					<path d="M445.131,379.442v6.684c-3.639-0.198-12.708-0.464-15.752-0.464c-2.255,0-4.77,0-7.351,0.203
						c-0.133,4.499-0.133,9.994-0.193,13.568l16.148-0.263v7.215l-16.148-0.662c0.06,5.888,0.133,15.02,0.722,20.053h-12.973
						c0.795-6.42,0.795-20.189,0.795-24.224c0-4.502-0.326-16.748-0.73-22.107h35.482V379.442z"/>
				</g>
			</g>
		</g>
	</g>
</g>
</svg>
