<?xml version="1.0" encoding="utf-8"?>
<!-- Generator: Adobe Illustrator 18.1.1, SVG Export Plug-In . SVG Version: 6.00 Build 0)  -->
<svg version="1.1" id="Livello_1" xmlns="http://www.w3.org/2000/svg" xmlns:xlink="http://www.w3.org/1999/xlink" x="0px" y="0px"
	 viewBox="0 0 89 73" enable-background="new 0 0 89 73" xml:space="preserve">
<g>
	<path fill="#FFFFFF" d="M16.9,64.4l0-6.1c3.8,0,5.2-0.2,5.9,4.5h0.4v-5.2l-10.5,0v0.7h1.8v13.5h-2v0.7h10.8v-5.5h-0.5
		c-0.5,4.2-1.6,4.8-4.6,4.8h-1.4v-6.5h0.8c1.3,0,2.1,0.8,2.4,3.1h0.5l0-6.8c0,0-0.5,0-0.5,0c0,0-0.1,2.9-2.4,2.9H16.9z"/>
	<path fill="#FFFFFF" d="M12.6,64.6H6.7v0.7h2v4.8c-0.3,1.2-2.2,1.7-2.7,1.7c-3.8,0-3.5-5.5-3.5-7c0-1.3-0.1-7,3.5-7
		c2.6,0,3.9,2.5,4.4,4.8h0.4c0-0.9,0-5.4,0-5.4c0,0-1.8,1.3-1.8,1.2c0,0-0.8-1.2-3.1-1.2c-4.4,0-6.1,4.4-6.1,7.5
		c0,2.8,1.3,7.7,6.1,7.7c1.5,0,2.5-0.8,3.1-1.6c0,0,1.9,1.5,1.9,1.5v-7.1h1.6V64.6z"/>
	<path fill="#FFFFFF" d="M81.5,66.9c-0.5,4.2-1.6,4.8-4.6,4.8h-0.2V58.3h1.9v-0.7h-6.2v0.7h1.9v13.5h-1.5l-5.5-14.6h-0.8
		c0,0-4.6,13.2-4.6,13.3c0,0-0.3,1.1-1.1,1.3c-0.7,0-0.6-0.3-0.6-0.5v-2.6c0-0.7-0.1-2.2-0.7-2.9c-0.8-0.8-2.1-0.8-2.1-0.9
		c0,0,3.4-0.7,3.4-3.9c0-2.3-1.6-3.4-4.2-3.5h-7.4v0.7h1.9v13.5h-1.9v0.7h6.1v-0.7h-1.9v-6.5h2.5c4.4,0.4-0.8,7.2,5,7.2h3.6v-0.7
		c-0.2,0-1.5,0-1.6-0.9c-0.1-0.7,0.9-3.1,0.9-3.1h5c0,0,1.5,4,1.6,4h-1.7v0.7h13.5v-5.5H81.5z M55.8,64.5h-2.4v-6.2h3.1
		c1.8,0.3,1.9,2.4,1.9,3C58.4,62.9,57.7,64.5,55.8,64.5 M64.2,67.1l2.2-6.4l2.3,6.4H64.2z"/>
	<path fill="#FFFFFF" d="M41.8,58.2c3.8,0,5.3-0.2,5.9,4.5h0.4v-5.2H32.9v0.7h0.4c0.5,0,1.8,0,1.9,1.2h0V68l-7.1-10.5h-3.9v0.7h0.6
		c0.8,0,1.8,0,1.9,1.2v11c0,1.1-1.6,1.5-2.3,1.5h0v0.5h5.3v-0.5c-0.7,0-2.3-0.4-2.3-1.5l0-9.7c2.8,4,8.1,11.7,8.2,11.7h0.3v-13
		c0.1-1.1,1.3-1.2,1.9-1.2h1.7v13.5h-2v0.7h10.8v-5.5h-0.5c-0.5,4.2-1.6,4.8-4.6,4.8h-1.4v-6.5h0.8c1.3,0,2.1,0.8,2.4,3.1h0.5l0-6.8
		c0,0-0.5,0-0.5,0c0,0-0.1,2.9-2.4,2.9h-0.7V58.2z"/>
	<polygon fill="#FFFFFF" points="88.9,58.3 88.9,57.5 82.8,57.5 82.8,58.3 84.7,58.3 84.7,71.7 82.8,71.7 82.8,72.4 88.9,72.4 
		88.9,71.7 86.9,71.7 86.9,58.3 	"/>
	<path fill="#FFFFFF" d="M72.8,48.3l1.9-0.7l0,0c2.7-1.1,3.1-1.8,2.9-3.6v-7.2c2,5.2,4,8.8,7.9,8.8c0.5,0,1.1-0.1,1.7-0.2l1.5-0.3
		l-1.1-1.2c-0.7-0.7-1-1.3-1.4-2c-0.2-0.3-0.3-0.6-0.5-0.9c-0.9-1.5-3.1-2-4.9-1.2c-0.8-1.6-1.6-3.7-2.6-6.3l-0.2-0.5
		c-0.2-0.4-0.3-0.8-0.5-1.2v-0.1h0c-0.6-1.4-1.3-2.7-2-4c-0.7-1.2-1.4-2.2-2.2-3.1c-2.1-2.4-4.8-3.9-8.1-4.5c-2.3-0.4-3.9-0.5-6-0.6
		c-0.4,0-0.9,0-1.3-0.1c-0.9-0.1-2.8-0.2-4.7-0.4c-1.3-0.1-2.5-0.2-3.5-0.3c0.1-0.3,0.1-0.6,0.1-0.9c0-0.4,0-0.8-0.1-1.1h13.2
		c3.4,0,5.9-1.5,7.3-4.5c3.4,0,5.8-1.6,7.3-4.5H78c3.5,0,6-1.6,7.5-4.8L86,2H41.4C38.5,2,36,3.9,35,6.9L35,7c-0.8-2.1-2.1-3.9-3.9-5
		c-2.5-1.5-5.3-2-7.5-1.3c-0.7,0.2-1.5,0.5-2.1,0.9C21,2,20.2,2.5,19.7,3.2c-0.6,0.7-1.1,1.6-1.5,2.4c-0.3,0.2-0.5,0.4-0.6,0.6
		l-0.5,1l0,0.1c-0.6,1.4-1.4,2.4-2,3.2c-0.6,0.7-0.6,1.4-0.6,1.8c0.1,0.5,0.3,0.9,0.6,1.2l0,0c-0.2,0.3-0.3,0.7-0.3,1
		c0,1.2,1,2.1,2.3,2.1c0.9,0,1.7-0.4,2.5-1c0.3-0.2,1.2-0.8,1.5-0.8c0.4,0,0.7,0.3,0.7,0.7c0,1-1.2,1.5-2.1,1.5l-1.8,0.2
		c-1.3,0.1-1.9,0.8-1.9,1.4c0,0.6,0.3,1,0.5,1.2l0.1,0.1l0.5,0.4L15,23.5c-1.4-1.3-3-2-4.4-2.1c-0.9,0-1.7,0.2-2.3,0.8
		c-0.2,0.2-0.3,0.3-0.4,0.5h0c-1.5,0-2.7,0.8-3.3,1.7c-0.7,1-0.4,2.7,0.4,4L0,29.8V53h89v-4.6H72.8z M84.3,42
		c0.2,0.3,0.3,0.6,0.5,0.8c0.2,0.3,0.4,0.6,0.6,1c-1.4-0.1-2.5-0.9-3.4-2.3C82.8,41.1,83.9,41.4,84.3,42 M65,22.2
		c2.9,0.5,5.2,1.8,7,3.8c0.4,0.4,0.7,0.9,1.1,1.4c-4.8-0.6-6.5-1.3-9.2-5.4C64.3,22,64.6,22.1,65,22.2 M62.9,15.2h-9.1
		c0.8-0.7,1.4-1.6,1.9-2.6h12.3C67,14.4,65.3,15.2,62.9,15.2 M70.1,10.8h-9.1c0.8-0.7,1.5-1.6,2-2.7h12.3
		C74.3,9.9,72.6,10.8,70.1,10.8 M70.8,3.9H83c-1.2,1.6-2.8,2.4-5.1,2.4h-9.1C69.6,5.6,70.3,4.8,70.8,3.9 M21.2,4.3
		c0.3-0.4,0.8-0.8,1.3-1.2c0.4-0.3,1-0.6,1.6-0.7C25,2.2,26,2.2,27,2.4l-3.3,2c-0.4,0-0.8-0.1-1.2-0.1c-0.6,0-1.1,0-1.5,0.1
		C21.1,4.4,21.1,4.4,21.2,4.3 M17.4,18.7c0-0.1,0.1-0.2,0.2-0.2l1.6,0.1c1.9-0.1,3.9-0.9,4.1-2.9c0-1.4-1-2.7-2.3-2.7
		c-0.7,0-1.6,0.5-2.5,1.1c-0.6,0.4-1.1,0.7-1.4,0.7c-0.2,0-0.4-0.2-0.4-0.3c0,0,0,0,0-0.1l1-1.4l-0.9-0.6c-0.2-0.1-0.5-0.4-0.5-0.5
		c0-0.1,0.1-0.2,0.1-0.3c0.4-0.4,0.8-0.9,1.2-1.6c0.3-0.4,0.4-0.6,0.8-0.6c0.4,0,0.8,0.3,0.8,0.8c0,0.3,0.3,0.5,0.7,0.5
		c0.4,0,0.6-0.3,0.8-0.5c0,0,0.9-0.8,0.4-1.2c-0.5-0.4-2.7,0.5-2.1-1.5l0.2-0.3c0.2-0.3,1.3-1.1,3.4-1.1c0.4,0,0.8,0,1.3,0.1l0.3,0
		l4.6-2.8c0,0.1,0.1,0.2,0.1,0.2l0,0c0.2,1.4-0.6,3-2,3.8l-0.6,0.3l0.4,2.1c-1.2,0.4-2,1.3-2,2.4c0,0.4,0.1,0.9,0.2,1.4
		c0.1,0.7,0.3,1.4,0.3,2.1c0,2.2-3,3.6-5.5,3.5l-0.1,0c-0.1,0-1.7-0.1-2.1-0.4C17.4,18.9,17.4,18.8,17.4,18.7 M6,25.5
		c0.4-0.6,1.2-1,2.2-0.9L9,24.7L9.3,24c0.1-0.2,0.2-0.4,0.3-0.5c0.2-0.2,0.6-0.3,1-0.3c1.1,0,2.5,0.8,3.6,2c0.4,0.4,0.8,1,1.1,1.5
		c0.1,0.1,0.1,0.2,0.2,0.3c0.1,0.1,0.2,0.3,0.2,0.3c0,0.1,0.6,0.9,0.6,1c0.4-0.5,0.8-1.1,1.1-1.6c0,0,0-0.1,0-0.1
		c-0.1-0.2-0.3-0.5-0.4-0.7l-0.1-0.1c0,0,0,0,0,0c0,0-0.1-0.1-0.1-0.2c-0.1-0.2-0.3-0.5-0.4-0.6l2.4-3.8c0.6,0.1,1.1,0.1,1.4,0.1
		h0.1c3.4,0,6.9-2,6.9-5.2v-0.1c0-0.9-0.2-1.7-0.3-2.4c-0.1-0.5-0.2-0.9-0.2-1.1c0-0.4,0.5-0.8,1.2-0.8h1.1l-0.5-2.8
		c1.5-1.1,2.5-3,2.4-4.7c1.7,1.3,2.8,3.5,3,5.8c0.1,0.7-0.1,1.6-0.3,2.6l-0.1,0.4l0,0c-0.4,1.6-1,3.3-1.3,4.1l-0.3,0.7l0.7,0.4
		c1.2,0.7,2,1.2,2,2.8c0,1.9-1.7,3.3-3.3,3.6L29,25l1.9,1.3c0.6,0.4,1,1.1,1,1.8c0,1.2-1,2.1-2.2,2.1h-0.7l-0.2,0.6
		c-0.7,2.2-1.4,3.3-3.8,3.6C25,33.7,25,33,25,32.1c0-0.2,0-0.8,0-1L24.9,29l-1.5,1.5c-0.5,0.5-1.4,0.9-2.4,1.1v-1.8L10.5,27l-3.7,1
		C6,27.2,5.8,25.8,6,25.5 M3,48.3l7.6-2l7.6,2H3z M19.2,46.7l-8.7-2.3l-8.7,2.3V31.2l8.7-2.3l8.7,2.3V46.7z M23.3,43.7
		c-0.8,1.1-0.9,2.7-0.3,4.6h-1.9V33.5c0.7-0.1,1.4-0.3,2.1-0.6c0,0.6-0.1,1.2-0.2,1.8c0,0.2-0.1,0.3-0.1,0.5l-0.2,1.1h1.1
		c1.6,0,2.8-0.3,3.8-0.7v6.2c0,0.2-0.1,0.3-0.3,0.3H27C25.4,42,24,42.6,23.3,43.7 M43.3,44.1c-0.7,0.8-1.3,2.1-0.9,4.2H31.1
		c1.2-0.1,2.1-0.4,2.7-1c0.7-0.8,0.8-1.8,0.8-2.6c0-0.1,0.1-0.3,0.7-0.6l1-0.4l-0.6-0.9c-1-1.5-0.5-4.7-0.2-6.5h0.1
		c3.8,0,6.3-0.8,8.9-1.6c0.7-0.2,1.4-0.4,2.1-0.7l0,0c0,0,0.8-0.2,1.8-0.5l3.7,6.1l0,0.1c0.4,0.5,0.4,0.9-0.3,1.6l-1.8,2l-3-0.6l0,0
		C45.7,42.5,44.2,43.1,43.3,44.1 M44.3,48.3c-0.3-1.3-0.2-2.3,0.4-3c0.6-0.7,1.4-0.8,2.1-0.8l3.5,0.6l0.1,0h0.5l2.5-2.7l0,0
		c0.4-0.5,1.7-2,0.4-3.9l-3.3-5.4c0.5-0.1,1.1-0.1,1.6-0.1l0,0c0,0,1.7,0,3.5,1c0.2,0.5,0.6,1.2,0.9,2c0.7,1.4,1.6,3.2,1.8,3.9
		c0.1,0.2,0.3,0.9-0.5,1.8l-6.3,6.7H44.3z M65.9,48.3h-12l5.1-5.4c1-1.1,1.4-2.4,0.9-3.6c-0.2-0.7-0.9-2.1-1.6-3.6
		c2,0.9,5.1,1.8,11.4,2.3c0.8,0.1,1,0.3,1.1,1l0.3,2.7l-3.3,0.7c-1.1,0.2-2,0.9-2.4,2C65,45.6,65.2,47,65.9,48.3 M67.2,45.1
		c0.2-0.5,0.5-0.8,1-0.9l4.9-1.1l-0.4-4.4l0-0.1c-0.1-0.6-0.5-2.3-2.8-2.5c-8.8-0.7-10.8-2-13-3.4c0,0,0,0,0,0l0,0l-0.1-0.1
		c-2.3-1.5-4.6-1.5-4.8-1.5c-2.5,0-5.6,1-5.9,1.1c-0.8,0.2-1.5,0.5-2.2,0.7c-2.8,0.9-5.1,1.7-9.1,1.5l-0.7,0l-0.2,0.7
		c-0.1,0.5-1.3,5-0.2,7.8c-1,0.8-1,1.6-1,1.8c0,1-0.2,1.2-0.3,1.3c-0.5,0.5-2,0.5-3.3,0.5h0h-0.5l-0.3,0.4c-0.8,1.1-2.5,1.4-3.6,1.1
		c-0.5-1.5-0.5-2.6,0-3.3c0.6-0.8,1.7-0.9,2.2-0.9h0.3c1.2,0,2.1-1,2.1-2.1v-7.9c0.4-0.5,0.6-1.2,0.9-1.9c1.9-0.3,3.4-1.9,3.4-3.9
		c0-0.8-0.2-1.5-0.6-2.1c1.8-0.9,3.3-2.6,3.3-4.9c0-2.3-1.2-3.4-2.3-4c0.3-0.9,0.8-2.4,1.2-4l1.5-5.5c0.7-2.2,2.5-3.6,4.6-3.6h27.2
		c-1.2,1.6-2.8,2.4-5.1,2.4H47.1l-0.9,1.8H61c-1.2,1.8-2.9,2.7-5.3,2.7H45l-0.9,1.8h9.5c-1.2,1.8-2.8,2.6-5.2,2.6h-5.8l-0.9,1.8h6.1
		c0.1,0.1,0.2,0.4,0.2,1.1c0,1.2-1,2.1-2.2,2.1c-0.4,0-0.8-0.1-1.4-0.4c-0.3-0.1-0.5-0.2-0.8-0.3l-1.4,1.3c0.3,0.1,0.5,0.2,0.8,0.3
		v0c1.2,0.5,1.9,0.8,2.8,0.8c1.1,0,2.1-0.5,2.9-1.2c1,0.1,2.7,0.2,4.4,0.3c2,0.2,3.8,0.3,4.8,0.4c0.5,0,0.9,0,1.4,0.1
		c0.8,0,1.6,0.1,2.3,0.1c3.7,6,5.6,6.8,12.8,7.7c0.5,0.9,1,1.9,1.4,2.9v11.7l0,0.1c0,0.5,0,0.7,0,0.8c-0.3,0.3-1.4,0.8-1.7,0.9
		L68,48.2C67.2,47.1,66.9,46,67.2,45.1"/>
	<polygon fill="#FFFFFF" points="17.3,33.6 11.5,32.1 11.5,34 17.3,35.5 	"/>
	<polygon fill="#FFFFFF" points="3.8,35.5 9.6,34 9.6,32.1 3.8,33.6 	"/>
	<polygon fill="#FFFFFF" points="3.8,39.3 9.6,37.8 9.6,35.9 3.8,37.4 	"/>
	<polygon fill="#FFFFFF" points="17.3,37.4 11.5,35.9 11.5,37.8 17.3,39.3 	"/>
	<polygon fill="#FFFFFF" points="17.3,41.2 11.5,39.7 11.5,41.6 17.3,43.1 	"/>
	<polygon fill="#FFFFFF" points="3.8,43.1 9.6,41.6 9.6,39.7 3.8,41.2 	"/>
</g>
</svg>
